<?xml version="1.0" encoding="UTF-8" standalone="no"?>
<!-- Created with Inkscape (http://www.inkscape.org/) -->

<svg
   xmlns:dc="http://purl.org/dc/elements/1.1/"
   xmlns:cc="http://creativecommons.org/ns#"
   xmlns:rdf="http://www.w3.org/1999/02/22-rdf-syntax-ns#"
   xmlns:svg="http://www.w3.org/2000/svg"
   xmlns="http://www.w3.org/2000/svg"
   xmlns:sodipodi="http://sodipodi.sourceforge.net/DTD/sodipodi-0.dtd"
   xmlns:inkscape="http://www.inkscape.org/namespaces/inkscape"
   inkscape:version="0.92.0 r15299"
   width="297mm"
   height="210mm"
   viewBox="0 0 297 210"
   version="1.1"
   id="svg5489"
   sodipodi:docname="PSLab-Case-Lasercut-v3.svg">
  <defs
     id="defs5483" />
  <sodipodi:namedview
     inkscape:snap-global="true"
     inkscape:snap-to-guides="true"
     inkscape:measure-end="143.121,235.076"
     inkscape:measure-start="143.121,244.714"
     id="base"
     pagecolor="#ffffff"
     bordercolor="#666666"
     borderopacity="1.0"
     inkscape:pageopacity="0.0"
     inkscape:pageshadow="2"
     inkscape:zoom="0.67382814"
     inkscape:cx="793.6786"
     inkscape:cy="211.1991"
     inkscape:document-units="mm"
     inkscape:current-layer="layer1"
     showgrid="true"
     inkscape:window-width="1600"
     inkscape:window-height="837"
     inkscape:window-x="301"
     inkscape:window-y="-8"
     inkscape:window-maximized="1"
     inkscape:object-paths="true"
     inkscape:snap-intersection-paths="true"
     inkscape:snap-nodes="true"
     inkscape:snap-smooth-nodes="true"
     inkscape:snap-bbox="false"
     showguides="true"
     inkscape:guide-bbox="true"
     inkscape:snap-others="false"
     inkscape:snap-grids="false">
    <inkscape:grid
       type="xygrid"
       id="grid3683" />
    <sodipodi:guide
       position="151.43881,14.143001"
       orientation="0,1"
       id="guide7593"
       inkscape:locked="false" />
    <sodipodi:guide
       position="152.78881,15.493001"
       orientation="1,0"
       id="guide22617"
       inkscape:locked="false" />
    <sodipodi:guide
       position="151.43882,16.843001"
       orientation="0,1"
       id="guide22619"
       inkscape:locked="false" />
    <sodipodi:guide
       position="150.08882,15.493001"
       orientation="1,0"
       id="guide22621"
       inkscape:locked="false" />
    <sodipodi:guide
       position="152.8103,64.846999"
       orientation="0,1"
       id="guide22629"
       inkscape:locked="false" />
    <sodipodi:guide
       position="152.81031,62.146997"
       orientation="0,1"
       id="guide22631"
       inkscape:locked="false" />
    <sodipodi:guide
       position="154.16031,63.496997"
       orientation="1,0"
       id="guide22633"
       inkscape:locked="false" />
    <sodipodi:guide
       position="151.46031,63.496997"
       orientation="1,0"
       id="guide22635"
       inkscape:locked="false" />
    <sodipodi:guide
       position="113.46439,64.749959"
       orientation="0,1"
       id="guide22646"
       inkscape:locked="false" />
    <sodipodi:guide
       position="113.46439,62.200243"
       orientation="0,1"
       id="guide22648"
       inkscape:locked="false" />
    <sodipodi:guide
       position="36.513017,16.769008"
       orientation="0,1"
       id="guide22652"
       inkscape:locked="false" />
    <sodipodi:guide
       position="36.513017,14.219008"
       orientation="0,1"
       id="guide22654"
       inkscape:locked="false" />
  </sodipodi:namedview>
  <metadata
     id="metadata5486">
    <rdf:RDF>
      <cc:Work
         rdf:about="">
        <dc:format>image/svg+xml</dc:format>
        <dc:type
           rdf:resource="http://purl.org/dc/dcmitype/StillImage" />
        <dc:title />
      </cc:Work>
    </rdf:RDF>
  </metadata>
  <g
     inkscape:label="Layer 1"
     inkscape:groupmode="layer"
     id="layer1"
     transform="translate(0,-87)">
    <path
       style="display:inline;opacity:0.98999999;fill:#ff7f2a;stroke-width:0.00106666;stroke-miterlimit:4;stroke-dasharray:none"
       d="m 72.199219,521.91406 c -4.187717,1.2e-4 -7.558594,3.37287 -7.558594,7.56055 v 231.31055 c 0,4.1876 3.370877,7.56054 7.558594,7.56054 H 476.37305 c 4.18771,0 7.55859,-3.37294 7.55859,-7.56054 V 529.47461 c 0,-4.18768 -3.37088,-7.56055 -7.55859,-7.56055 z m 39.452791,7.2198 h 117.9613 v 13.24895 h -117.9613 z m 213.60938,0 h 117.88122 v 13.24895 H 325.26139 Z m -53.87891,18.3095 44.09411,0.0625 v 11.60352 l -44.09411,-0.0625 z m 47.75586,0.0215 h 82.74841 v 11.57618 h -82.74841 z m -95.84375,0.16407 h 44.15075 v 11.38867 h -44.15075 z m 205.54721,1.34765 c 2.66098,3e-4 4.81806,2.15738 4.81836,4.81836 -3e-4,2.66098 -2.15738,4.81806 -4.81836,4.81836 -2.66098,-3e-4 -4.81806,-2.15738 -4.81836,-4.81836 3e-4,-2.66098 2.15738,-4.81806 4.81836,-4.81836 z m -285.625,0.01 c 2.71411,-3.7e-4 4.91443,2.19995 4.91406,4.91406 3.7e-4,2.71411 -2.19995,4.91443 -4.91406,4.91406 -2.71335,-7e-4 -4.91248,-2.20071 -4.91211,-4.91406 -3.7e-4,-2.71335 2.19876,-4.91336 4.91211,-4.91406 z m 293.35351,25.07285 h 21.0625 v 141.36521 h -21.0625 z m 26.16211,31.09375 h 13.48806 v 81.62693 H 462.73242 Z M 74.064453,636.8504 h 12.864682 v 83.14961 H 74.064453 Z m 186.043497,91.28976 122.5288,0.0645 v 13.13328 l -122.5288,-0.0625 z m 125.90821,0.10937 h 44.66942 v 12.97117 h -44.66942 z m -202.50977,0.24024 h 74.36864 v 12.95945 h -74.36864 z m -45.50444,1.8325 c 2.66098,3e-4 4.81806,2.15738 4.81836,4.81835 -3e-4,2.66098 -2.15738,4.81806 -4.81836,4.81836 -2.66098,-3e-4 -4.81806,-2.15738 -4.81836,-4.81836 3e-4,-2.66097 2.15738,-4.81805 4.81836,-4.81835 z m 313.70117,0.0566 c 2.63124,-8.2e-4 4.76449,2.13243 4.76368,4.76367 -2.7e-4,2.63048 -2.1332,4.76254 -4.76368,4.76172 -2.6297,-2.7e-4 -4.76144,-2.13201 -4.76171,-4.76172 -8.1e-4,-2.63047 2.13125,-4.7634 4.76171,-4.76367 z M 111.36967,746.8125 h 118.24364 v 11.62305 H 111.36967 Z m 213.60938,0 h 118.16356 v 11.62305 H 324.97905 Z"
       transform="matrix(0.26458333,0,0,0.26458333,0,87)"
       id="path56061"
       inkscape:connector-curvature="0"
       sodipodi:nodetypes="cssssssccccccccccccccccccccccccccccccccccccccccccccccccccccccccccccccccccccccccccccccccccccccc" />
    <path
       style="opacity:0.98999999;fill:#ff6600;stroke-width:0.00028213;stroke-miterlimit:4;stroke-dasharray:none"
       d="m 36.739219,200.29648 28.780012,0.0334 v 3.04482 l 20.771563,-0.0334 v -3.04482 h 10.551553 v -2.74935 h -2.467273 v -4.99861 h 2.467273 v -2.7488 H 86.290794 v -3.06395 l -20.771563,0.0334 v 3.06394 l -28.780012,-0.0334 v 2.74881 h 2.473992 v 4.99861 h -2.473992 z m 12.916055,-5.26726 0.529167,-1.98271 h 8.883547 l 0.581337,1.98221 -0.937609,1.8334 -8.249483,-0.0449 z"
       id="path6879"
       inkscape:connector-curvature="0"
       sodipodi:nodetypes="cccccccccccccccccccccccccccc" />
    <path
       style="opacity:0.98999999;fill:#ff7f2a;stroke-width:0.00028213;stroke-miterlimit:4;stroke-dasharray:none"
       d="m 155.9076,201.77948 h 20.35397 v 3.06394 h 19.99339 v -3.06394 h 19.75578 v -2.74883 h -2.365 v -4.99861 h 2.365 v -2.74933 h -19.75578 v -3.04483 h -19.99339 v 3.04483 c -6.78466,0 -13.56931,0 -20.35397,0 v 2.74933 h 2.49879 v 4.99861 h -2.49879 z"
       id="path11397"
       inkscape:connector-curvature="0"
       sodipodi:nodetypes="ccccccccccccccccccccc" />
    <path
       id="path14604"
       d="m 144.48417,207.48765 v 2.97395 h -7.41477 v 2.91501 h -3.07755 v 4.83148 h 3.07755 v 2.75024 h 7.41477 v 2.96788 h 29.99025 v -2.96788 h 23.83079 2.84552 v 2.96788 h 29.99081 v -2.96788 h 5.71425 v -2.75024 h 3.07151 v -4.83148 h -3.07151 v -2.91501 h -5.71425 v -2.97395 h -29.99081 v 2.97395 h -26.67631 v -2.97395 z"
       style="opacity:0.98999999;fill:#aa0000;stroke-width:0.00028213;stroke-miterlimit:4;stroke-dasharray:none"
       inkscape:connector-curvature="0"
       sodipodi:nodetypes="cccccccccccccccccccccccccccccc" />
    <path
       sodipodi:nodetypes="ccccccccccccccccccccccccccccc"
       inkscape:connector-curvature="0"
       style="opacity:0.98999999;fill:#aa0000;stroke-width:0.00028213;stroke-miterlimit:4;stroke-dasharray:none"
       d="m 31.210281,205.07116 v 2.97395 h -7.41477 v 2.91501 h -3.077548 v 4.83147 h 3.077548 v 2.75025 h 7.41477 v 2.96788 h 29.990252 v -2.96788 H 87.87685 v 2.96788 h 29.9908 v -2.96788 h 5.71425 v -2.75025 h 3.07151 v -4.83147 h -3.07151 v -2.91501 h -5.71425 v -2.97395 h -29.9908 v 2.97395 H 61.200533 v -2.97395 z"
       id="path2936" />
    <path
       style="display:inline;opacity:0.98999999;fill:#ff7f2a;stroke-width:0.00106666;stroke-miterlimit:4;stroke-dasharray:none"
       d="m 506.56445,521.91406 c -4.18771,1.2e-4 -7.55859,3.37287 -7.55859,7.56055 v 231.31055 c 0,4.1876 3.37088,7.56054 7.55859,7.56054 h 404.17383 c 4.18772,0 7.55859,-3.37294 7.5586,-7.56054 V 529.47461 c 0,-4.18768 -3.37088,-7.56055 -7.5586,-7.56055 z m 39.73324,9.12891 h 117.9613 v 11.33984 h -117.9613 z m 213.60937,0 h 117.88122 v 11.33984 H 759.90706 Z m -182.43831,17.56641 c 0.17024,-5e-5 0.34038,0.008 0.50977,0.0254 0.007,6.4e-4 0.013,10e-4 0.0195,0.002 2.70395,0.271 4.76301,2.54618 4.76367,5.26367 9e-4,2.9236 -2.36937,5.29387 -5.29297,5.29297 -2.92284,-1.8e-4 -5.29192,-2.37013 -5.29102,-5.29297 0.001,-2.58641 1.87241,-4.79276 4.42383,-5.2168 0.008,-6.7e-4 0.0156,-10e-4 0.0234,-0.002 0.15982,-0.0269 0.3208,-0.0465 0.48242,-0.0586 0.12025,-0.009 0.24077,-0.0132 0.36133,-0.0137 z m 285.7832,0 c 2.8181,4.4e-4 5.1022,2.28541 5.10157,5.10351 -4.4e-4,2.81733 -2.28424,5.10112 -5.10157,5.10156 -2.81809,6.3e-4 -5.10307,-2.28347 -5.10351,-5.10156 -6.3e-4,-2.81885 2.28466,-5.10414 5.10351,-5.10351 z m 33.84571,56.43341 h 11.58007 v 80.94934 h -11.58007 z m -388.66797,31.86719 h 11.58203 v 83.08215 h -11.58203 z m 63.9375,93.13299 c 2.81733,4.4e-4 5.10112,2.28423 5.10156,5.10156 -4.4e-4,2.81733 -2.28423,5.10112 -5.10156,5.10156 -2.81733,-4.4e-4 -5.10113,-2.28423 -5.10157,-5.10156 4.4e-4,-2.81733 2.28424,-5.10112 5.10157,-5.10156 z m 313.70117,0.004 c 2.8181,-6.4e-4 5.10308,2.28346 5.10352,5.10156 6.3e-4,2.81886 -2.28466,5.10415 -5.10352,5.10351 -2.81809,-4.4e-4 -5.10219,-2.28542 -5.10156,-5.10351 4.4e-4,-2.81733 2.28423,-5.10112 5.10156,-5.10156 z m -339.77067,16.76748 h 117.9613 v 11.62305 h -117.9613 z m 213.60937,0 H 877.78828 V 758.4375 H 759.90706 Z"
       id="path3044"
       inkscape:connector-curvature="0"
       sodipodi:nodetypes="csssscscccccccccccccccccccccccccccccccccccccccccccccccccccccccccc"
       transform="matrix(0.26458333,0,0,0.26458333,0,87)" />
  </g>
  <g
     inkscape:groupmode="layer"
     id="layer3"
     inkscape:label="Layer 2"
     style="display:inline" />
</svg>
